<svg width="147" height="60" fill="none" xmlns="http://www.w3.org/2000/svg"><path d="M2.404 52.442v2.815c-.005.192.007.385.038.575a.443.443 0 0 0 .215.295c.173.084.366.121.559.108a2.99 2.99 0 0 0 .505-.054v.923a2.6 2.6 0 0 1-.373.054c-.2.022-.402.032-.604.033a2.233 2.233 0 0 1-1.12-.218.942.942 0 0 1-.456-.553c-.069-.29-.1-.587-.092-.885v-3.097H.066v-1.032h1.01v-1.868h1.328v1.868h1.317v1.032l-1.317.004ZM10.154 57.146h-1.34v-.966H8.75a1.926 1.926 0 0 1-.654.76 1.818 1.818 0 0 1-1.08.316 1.908 1.908 0 0 1-1.219-.365 1.927 1.927 0 0 1-.647-.907 3.401 3.401 0 0 1-.187-1.119V51.41H6.29v3.245c-.022.387.094.77.33 1.081a1.122 1.122 0 0 0 .91.394 1.149 1.149 0 0 0 .956-.42 1.66 1.66 0 0 0 .329-1.058v-3.245h1.339v5.74ZM14.028 51.41h1.317v.913h.077c.103-.264.285-.489.522-.646.287-.188.627-.281.97-.267.145.001.289.02.429.054l-.055 1.228a1.595 1.595 0 0 0-.285-.07 2.404 2.404 0 0 0-.307-.016 1.333 1.333 0 0 0-1.01.358c-.26.343-.382.769-.341 1.196v2.987h-1.317V51.41ZM19.12 56.81a2.582 2.582 0 0 1-.922-1.104 3.522 3.522 0 0 1-.298-1.45 3.55 3.55 0 0 1 .298-1.461c.196-.447.516-.829.922-1.103a2.654 2.654 0 0 1 1.531-.424 2.483 2.483 0 0 1 1.916.772 3.18 3.18 0 0 1 .708 2.227v.359h-4.08v.086a1.484 1.484 0 0 0 .686 1.255c.223.135.48.203.741.197.284.008.564-.07.802-.224.221-.148.394-.358.497-.602h1.306a2.604 2.604 0 0 1-.894 1.358c-.482.369-1.08.558-1.689.533a2.634 2.634 0 0 1-1.524-.42Zm2.87-3.053a1.623 1.623 0 0 0-.389-1.147 1.3 1.3 0 0 0-.96-.364 1.326 1.326 0 0 0-1.016.407c-.265.307-.406.7-.398 1.104h2.763ZM24.45 51.41h1.338v.934h.077a1.909 1.909 0 0 1 1.78-1.076 1.828 1.828 0 0 1 1.613.718c.334.49.507 1.07.497 1.662v3.498h-1.329v-3.292a1.58 1.58 0 0 0-.345-1.091 1.205 1.205 0 0 0-.95-.387 1.23 1.23 0 0 0-.994.413c-.24.303-.362.68-.346 1.065v3.292h-1.339l-.003-5.736ZM32.913 52.442v2.815a3.07 3.07 0 0 0 .039.575.446.446 0 0 0 .213.295c.174.084.367.121.56.108a2.99 2.99 0 0 0 .505-.054v.923a2.6 2.6 0 0 1-.372.054c-.2.022-.402.032-.604.033a2.233 2.233 0 0 1-1.12-.218.942.942 0 0 1-.456-.553 3.416 3.416 0 0 1-.093-.885v-3.097h-1.01v-1.032h1.01v-1.868h1.328v1.868h1.317v1.032l-1.317.004ZM35.713 50.177a.738.738 0 0 1-.22-.538.726.726 0 0 1 .22-.543.74.74 0 0 1 .548-.217.745.745 0 0 1 .55.222.743.743 0 0 1 .219.538.737.737 0 0 1-.22.538.738.738 0 0 1-.549.223.741.741 0 0 1-.548-.223Zm-.1 1.233h1.329v5.737h-1.329V51.41ZM38.534 51.41h1.339v.934h.078a1.898 1.898 0 0 1 1.778-1.076 1.83 1.83 0 0 1 1.613.718c.334.49.508 1.07.497 1.662v3.498h-1.328v-3.292a1.58 1.58 0 0 0-.346-1.091 1.204 1.204 0 0 0-.95-.387 1.23 1.23 0 0 0-.993.413c-.24.303-.363.68-.346 1.065v3.292h-1.34l-.002-5.736ZM46.913 59.352v-1.065c.12.03.24.054.362.07.16.025.322.038.484.039a1.38 1.38 0 0 0 1.152-.451c.243-.329.367-.729.351-1.135v-.848h-.087c-.156.31-.386.576-.67.777-.343.239-.756.36-1.174.342a2.128 2.128 0 0 1-1.241-.364 2.344 2.344 0 0 1-.813-1.021 3.784 3.784 0 0 1-.285-1.516 3.849 3.849 0 0 1 .285-1.532c.167-.411.449-.767.813-1.026a2.13 2.13 0 0 1 1.24-.365c.432-.018.856.11 1.203.365.281.205.503.48.642.798h.087v-1h1.327v5.39a3.548 3.548 0 0 1-.213 1.18 2.32 2.32 0 0 1-.807 1.065 2.627 2.627 0 0 1-1.636.456 2.858 2.858 0 0 1-1.02-.16Zm1.97-3.906c.25-.383.379-.831.368-1.287a2.21 2.21 0 0 0-.367-1.272 1.205 1.205 0 0 0-1.07-.543 1.235 1.235 0 0 0-1.082.538c-.251.379-.38.825-.368 1.278-.012.457.114.907.363 1.293a1.212 1.212 0 0 0 1.087.543 1.214 1.214 0 0 0 1.066-.55h.003ZM55.51 56.81a2.583 2.583 0 0 1-.922-1.104 3.522 3.522 0 0 1-.298-1.45c-.005-.502.096-1 .298-1.461.196-.447.516-.829.922-1.103a2.654 2.654 0 0 1 1.531-.424 2.484 2.484 0 0 1 1.916.772 3.18 3.18 0 0 1 .708 2.227v.359h-4.083v.086a1.483 1.483 0 0 0 .685 1.255c.223.135.48.203.741.197.284.008.564-.07.802-.224.221-.148.394-.358.497-.602h1.306a2.604 2.604 0 0 1-.894 1.358c-.482.369-1.08.558-1.689.533a2.634 2.634 0 0 1-1.52-.42Zm2.87-3.053a1.623 1.623 0 0 0-.389-1.147 1.299 1.299 0 0 0-.96-.364 1.326 1.326 0 0 0-1.016.407c-.265.307-.406.7-.397 1.104h2.762ZM60.84 51.41h1.339v.934h.076a1.909 1.909 0 0 1 1.78-1.076 1.828 1.828 0 0 1 1.613.718c.334.49.507 1.07.497 1.662v3.498h-1.329v-3.292a1.58 1.58 0 0 0-.345-1.091 1.204 1.204 0 0 0-.95-.387 1.228 1.228 0 0 0-.994.413c-.24.303-.362.68-.345 1.065v3.292h-1.34l-.003-5.736ZM75.199 57.146h-1.34v-.966h-.066a1.931 1.931 0 0 1-.653.76 1.819 1.819 0 0 1-1.08.316 1.91 1.91 0 0 1-1.22-.365 1.935 1.935 0 0 1-.647-.907 3.427 3.427 0 0 1-.187-1.119V51.41h1.328v3.245c-.022.387.095.77.33 1.081a1.12 1.12 0 0 0 .911.394 1.146 1.146 0 0 0 .955-.42 1.66 1.66 0 0 0 .33-1.058v-3.245h1.339v5.74ZM76.603 51.41h1.34v.934h.076a1.91 1.91 0 0 1 1.778-1.076 1.829 1.829 0 0 1 1.614.718c.335.49.508 1.07.497 1.662v3.498H80.58v-3.292a1.575 1.575 0 0 0-.347-1.091 1.202 1.202 0 0 0-.949-.387 1.227 1.227 0 0 0-.994.413c-.24.303-.362.68-.345 1.065v3.292h-1.34l-.002-5.736ZM87.735 52.442v2.815c-.005.192.008.385.038.575a.443.443 0 0 0 .215.295c.173.084.366.121.559.108a2.99 2.99 0 0 0 .505-.054v.923a2.6 2.6 0 0 1-.373.054 5.75 5.75 0 0 1-.604.033 2.233 2.233 0 0 1-1.12-.218.942.942 0 0 1-.456-.553c-.069-.29-.1-.587-.092-.885v-3.097h-1.01v-1.032h1.01v-1.868h1.328v1.868h1.317v1.032l-1.317.004ZM90.534 50.177a.742.742 0 0 1-.22-.538.73.73 0 0 1 .22-.543.742.742 0 0 1 .548-.217.741.741 0 0 1 .55.222.743.743 0 0 1 .22.538.735.735 0 0 1-.22.538.736.736 0 0 1-.55.223.743.743 0 0 1-.548-.223Zm-.1 1.233h1.329v5.736h-1.329V51.41ZM93.42 49.063h1.33v4.509h.054l1.9-2.163h1.49l-2.25 2.608 2.316 3.128h-1.482l-1.965-2.77h-.066v2.77H93.42l.002-8.083ZM18.002 19.566a16.047 16.047 0 0 0-2.4-.188c-5.748 0-8.275 3.188-8.275 8.94v14.504H0V12.376h7.137v4.876c1.453-3.312 4.869-5.25 8.907-5.25.658-.003 1.314.06 1.958.186v7.378ZM51.039 34.132c-1.705 5.31-6.506 9.628-13.897 9.628-8.338 0-15.729-5.999-15.729-16.317 0-9.63 7.139-16.006 14.971-16.006 9.475 0 15.034 6.195 15.034 15.818.018.775-.046 1.55-.19 2.312H28.741a8.152 8.152 0 0 0 2.556 5.675 8.322 8.322 0 0 0 5.845 2.266c4.485 0 6.696-2.313 7.707-5.31l6.19 1.934Zm-7.007-9.878c-.19-3.501-2.526-6.753-7.58-6.753a7.476 7.476 0 0 0-5.107 1.907 7.328 7.328 0 0 0-2.414 4.845h15.101ZM64.31 42.823h-7.327V12.377h7.137v4.064a10.1 10.1 0 0 1 3.862-3.707 10.232 10.232 0 0 1 5.235-1.232c7.517 0 11.117 5.376 11.117 12.066v19.255h-7.328V24.818c0-3.75-1.705-6.752-6.317-6.752-4.232 0-6.379 3.188-6.379 7.19v17.567ZM102.525 12.376h6.384v6.44h-6.38v14.128c0 2.689 1.2 3.814 3.916 3.814.848-.016 1.693-.1 2.527-.25v5.998c-1.432.53-2.958.764-4.485.688-5.749 0-9.222-3.313-9.222-9.065V18.812h-5.69v-6.44h1.58c3.284 0 4.737-2.064 4.737-4.75V3.057h6.633v9.318ZM120.024.516a4.42 4.42 0 0 1 1.716.315 4.374 4.374 0 0 1 2.419 2.395c.22.54.328 1.117.318 1.698.01.58-.1 1.154-.321 1.69a4.284 4.284 0 0 1-.967 1.428 4.333 4.333 0 0 1-1.455.937 4.37 4.37 0 0 1-1.71.297 4.397 4.397 0 0 1-1.69-.32 4.352 4.352 0 0 1-1.432-.942 4.281 4.281 0 0 1-1.275-3.09 4.33 4.33 0 0 1 1.269-3.111 4.445 4.445 0 0 1 3.128-1.297Zm-3.603 42.306V12.376h7.264v30.446h-7.264Z" fill="#fff"/><path d="m147 42.843-10.617-18.141 7.481-12.339h-7.944l-7.469 12.314 10.621 18.166H147Z" fill="#CB007B"/></svg>