<?xml version="1.0" encoding="utf-8"?>
<!-- Generator: Adobe Illustrator 19.2.1, SVG Export Plug-In . SVG Version: 6.00 Build 0)  -->
<svg version="1.1" id="layer" xmlns="http://www.w3.org/2000/svg" xmlns:xlink="http://www.w3.org/1999/xlink" x="0px" y="0px"
	 viewBox="0 0 652 652" style="enable-background:new 0 0 652 652;" xml:space="preserve">
<style type="text/css">
	.st0{font-family:'TimesNewRomanPSMT';}
	.st1{font-size:46.0405px;}
	.st2{fill:#E41513;}
</style>
<g>
	<text transform="matrix(1 0 0 1 132.5938 321.8398)" class="st0 st1"> </text>
</g>
<g>
	<g>
		<path class="st2" d="M620.3,316.8c0,3.5,0,7-0.9,9.7c-2.7-0.9-5.3-0.9-8.8-0.9c-2.7,0-5.3,0.9-8,0.9c0,44.1,0,44.1,0,44.1
			c-11.5,0-11.5,0-11.5,0c0-51.1,0-51.1,0-51.1c4.4-1.8,13.3-3.5,19.4-3.5C614.1,315.9,617.6,315.9,620.3,316.8z M543.5,338.8
			c26.5,0,26.5,0,26.5,0c0-7.9-5.3-13.2-13.2-13.2C548.8,325.6,544.4,330,543.5,338.8z M580.6,348.5c-36.2,0-36.2,0-36.2,0
			c0.9,9.7,6.2,14.1,16.8,14.1c6.2,0,12.4-1.8,18.5-4.4c-0.9,3.5-1.8,7-1.8,10.6c-5.3,2.6-11.5,3.5-16.8,3.5
			c-19.4,0-29.1-10.6-29.1-28.2c0-15.9,8-28.2,25.6-28.2c16.8,0,23.8,10.6,23.8,23.8C581.5,343.2,580.6,345.8,580.6,348.5z
			 M511.7,359.1c0-32.6,0-32.6,0-32.6c-2.6,0-6.2-0.9-8.8-0.9c-11.5,0-16.8,7-16.8,19.4c0,10.6,4.4,17.6,14.1,17.6
			C504.7,362.6,508.2,360.8,511.7,359.1z M523.2,298.3c0,72.2,0,72.2,0,72.2c-10.6,0-10.6,0-10.6,0c-0.9-6.2-0.9-6.2-0.9-6.2
			c-2.6,4.4-7.1,7.9-15,7.9c-13.3,0-22.1-10.6-22.1-27.3c0-18.5,9.7-29.1,28.2-29.1c3.5,0,6.2,0.9,8.8,0.9c0-16.7,0-16.7,0-16.7
			C515.3,298.3,519.7,298.3,523.2,298.3z M465,336.1c0,34.4,0,34.4,0,34.4c-11.5,0-11.5,0-11.5,0c0-32.6,0-32.6,0-32.6
			c0-7.9-2.7-12.3-14.1-12.3c-2.7,0-5.3,0.9-8.8,0.9c0,44.1,0,44.1,0,44.1c-11.5,0-11.5,0-11.5,0c0-51.1,0-51.1,0-51.1
			c7.1-1.8,15-3.5,21.2-3.5C458.8,315.9,465,323.8,465,336.1z M395.3,359.1c0-32.6,0-32.6,0-32.6c-2.7,0-5.3-0.9-7.9-0.9
			c-12.4,0-17.7,7.9-17.7,19.4c0,10.6,4.4,17.6,14.1,17.6C388.2,362.6,392.6,361.7,395.3,359.1z M406.8,319.4c0,51.1,0,51.1,0,51.1
			c-10.6,0-10.6,0-10.6,0c-0.9-6.2-0.9-6.2-0.9-6.2c-2.7,4.4-7.1,7.9-14.1,7.9c-14.1,0-22.9-10.6-22.9-27.3
			c0-18.5,9.7-29.1,29.1-29.1C394.4,315.9,400.6,316.8,406.8,319.4z M345,362.6c3.5,0,7.1-0.9,9.7-1.8c-0.9,2.6-0.9,6.2-1.8,9.7
			c-2.7,0.9-6.2,1.8-9.7,1.8c-10.6,0-17.6-5.3-17.6-17.6c0-54.6,0-54.6,0-54.6c3.5-0.9,7.1-1.8,10.6-1.8c0,19.4,0,19.4,0,19.4
			c18.5,0,18.5,0,18.5,0c0,3.5-0.9,7.1-0.9,9.7c-17.7,0-17.7,0-17.7,0c0,25.5,0,25.5,0,25.5C336.2,359.9,339.7,362.6,345,362.6z
			 M314.1,336.1c0,34.4,0,34.4,0,34.4c-11.5,0-11.5,0-11.5,0c0-32.6,0-32.6,0-32.6c0-7.9-2.6-12.3-14.1-12.3c-2.6,0-6.2,0.9-9.7,0.9
			c0,44.1,0,44.1,0,44.1c-11.5,0-11.5,0-11.5,0c0-51.1,0-51.1,0-51.1c7.9-1.8,15.9-3.5,21.2-3.5
			C307.9,315.9,314.1,323.8,314.1,336.1z M243.5,359.1c0-32.6,0-32.6,0-32.6c-1.8,0-4.4-0.9-7.9-0.9c-11.5,0-17.6,7.9-17.6,19.4
			c0,10.6,4.4,17.6,15,17.6C237.3,362.6,240.9,361.7,243.5,359.1z M255,319.4c0,51.1,0,51.1,0,51.1c-10.6,0-10.6,0-10.6,0
			c0-6.2,0-6.2,0-6.2c-3.5,4.4-7.9,7.9-15,7.9c-13.2,0-22.9-10.6-22.9-27.3c0-18.5,9.7-29.1,29.1-29.1
			C243.5,315.9,249.7,316.8,255,319.4z M151.8,368.7c0-4.4,0.9-7,1.8-10.6c6.2,2.6,13.2,3.5,19.4,3.5c9.7,0,15-2.6,15-8.8
			c0-6.2-4.4-8.8-14.1-13.2c-5.3-1.8-5.3-1.8-5.3-1.8c-9.7-4.4-15.9-9.7-15.9-21.1c0-11.5,7.9-19.4,24.7-19.4
			c7.1,0,13.2,0.9,18.5,2.6c0,4.4-0.9,7.9-1.8,10.6c-5.3-1.8-12.4-2.6-16.8-2.6c-8.8,0-13.2,3.5-13.2,8.8c0,5.3,3.5,8.8,11.5,11.5
			c5.3,2.6,5.3,2.6,5.3,2.6c13.2,5.3,18.5,11.5,18.5,21.1c0,12.3-8.8,20.3-26.5,20.3C164.1,372.3,157.1,371.4,151.8,368.7z
			 M99.7,317.6c-0.9-4.4-1.8-7.9-3.5-11.5c-17.6-30-17.6-30-17.6-30c-0.9-1.8-1.8-4.4-2.6-7c0,1.8,0,1.8,0,1.8
			c-4.4,7-4.4,15.9,0,23.8c13.2,23.8,13.2,23.8,13.2,23.8c4.4,7,4.4,16.7,0,23.8c-0.9,1.8-0.9,1.8-0.9,1.8c0-2.6-0.9-5.3-2.6-7.9
			c-12.4-22-12.4-22-12.4-22c-7.9-13.2-7.9-13.2-7.9-13.2c-1.8-2.6-2.6-5.3-2.6-7.9c-0.9,1.8-0.9,1.8-0.9,1.8
			c-4.4,7-4.4,15.9,0,23.8l0,0c14.1,23.8,14.1,23.8,14.1,23.8c3.5,7.9,3.5,16.7,0,23.8c-0.9,1.8-0.9,1.8-0.9,1.8
			c-0.9-2.6-1.8-5.3-2.6-7c-17.6-30-17.6-30-17.6-30c-2.6-4.4-3.5-8.8-3.5-13.2c-18.5,4.4-30.9,15-30.9,26.4c0,16.7,24.7,30,55.6,30
			c30,0,54.7-13.2,54.7-30C130.6,332.6,118.2,322.1,99.7,317.6z"/>
	</g>
</g>
</svg>
